<svg xmlns="http://www.w3.org/2000/svg" version="1.1" xmlns:xlink="http://www.w3.org/1999/xlink" xmlns:svgjs="http://svgjs.dev/svgjs" width="1440" height="900" preserveAspectRatio="none" viewBox="0 0 1440 900"><g mask="url(&quot;#SvgjsMask1008&quot;)" fill="none"><rect width="1440" height="900" x="0" y="0" fill="rgba(0, 0, 0, 1)"></rect><path d="M675 200.68C665.89 200.68 658.02 214.02 658.02 225C658.02 233.11 666.16 238.85 675 238.85C685.12 238.85 695.93 233.38 695.93 225C695.93 214.29 684.85 200.68 675 200.68" stroke="rgba(242, 200, 34, 1)" stroke-width="2"></path><path d="M1225 0C1293.6 28.58 1287.81 93.75 1350 93.75C1411.12 93.75 1404.38 28.01 1471.62 0C1516.88 -18.86 1558.73 -35.42 1575 0C1610.42 77.08 1575 112.5 1575 225C1575 337.5 1575 337.5 1575 450C1575 562.5 1575 562.5 1575 675C1575 746.43 1595.37 754.08 1575 817.86C1559.44 866.58 1549.95 882.91 1503.13 900C1437.45 923.98 1426.57 900 1350 900C1251.57 900 1204.15 952.36 1153.13 900C1094.53 839.86 1144.43 785.89 1130.77 675C1130.37 671.74 1128.11 672.86 1125 671.69C1012.73 629.44 1001.65 587.04 900 588.16C851.08 588.7 823.85 636.38 823.85 675C823.85 705.85 864 698.33 900 727.11C1004.73 810.83 1105.31 851.02 1105.31 900C1105.31 937.47 1002.65 900 900 900C815.34 900 801.94 925.53 730.67 900C689.44 885.23 711.14 819.4 675 819.4C619.02 819.4 615.22 875.36 546.43 900C502.72 915.66 498.21 900 450 900C337.5 900 337.5 900 225 900C145.31 900 127.03 931.45 65.62 900C14.53 873.83 17.95 846.31 0 784.76C-14.86 733.81 0 729.88 0 675C0 621.43 -13.08 618.38 0 567.86C16.04 505.88 58.24 504.22 58.24 450C58.24 415.83 9.69 428.52 0 391.07C-19.43 316.02 0 308.03 0 225C0 112.5 -56.25 56.25 0 0C56.25 -56.25 112.5 0 225 0C337.5 0 337.5 0 450 0C562.5 0 562.5 0 675 0C787.5 0 787.5 0 900 0C1012.5 0 1012.5 0 1125 0C1175 0 1181.1 -18.29 1225 0" stroke="rgba(242, 200, 34, 1)" stroke-width="2"></path><path d="M225 618.75C165.21 618.75 109.76 645.04 109.76 675C109.76 705.98 164.57 740.63 225 740.63C313.05 740.63 406.73 705.71 406.73 675C406.73 644.77 313.7 618.75 225 618.75" stroke="rgba(242, 200, 34, 1)" stroke-width="2"></path><path d="M225 106.58C197.35 106.58 177.13 170.79 177.13 225C177.13 253.44 199.2 271.88 225 271.88C256.23 271.88 291.18 255.92 291.18 225C291.18 173.27 254.37 106.58 225 106.58" stroke="rgba(242, 200, 34, 1)" stroke-width="2"></path><path d="M675 48.65C608.98 48.65 551.89 145.41 551.89 225C551.89 283.78 610.94 325.38 675 325.38C748.37 325.38 826.74 285.72 826.74 225C826.74 147.36 746.41 48.65 675 48.65" stroke="rgba(242, 200, 34, 1)" stroke-width="2"></path><path d="M1067.14 0C1105 64.89 1011.34 132.7 1031.25 225C1040.27 266.83 1076.09 268.27 1125 268.27C1209.51 268.27 1211.64 247.02 1298.08 225C1324.14 218.36 1323.76 210.94 1350 210.94C1387.22 210.94 1425 215.41 1425 225C1425 234.94 1371 219.87 1350 250C1292.59 332.37 1268.18 352.51 1268.18 450C1268.18 525.49 1301.78 595.95 1350 595.95C1405.48 595.95 1420.09 528.17 1475.58 450C1532.59 369.69 1548.34 279 1575 279C1598.05 279 1575 364.5 1575 450C1575 562.5 1575 562.5 1575 675C1575 701.79 1589.28 707.15 1575 728.57C1514.28 819.65 1509.63 835.52 1425 900C1397.13 921.23 1387.5 900 1350 900C1301.78 900 1264.78 933.64 1253.57 900C1227.28 821.14 1311.42 763.11 1275 675C1247.14 607.59 1202.39 627.26 1125 588.97C1014.89 534.49 996.78 467.99 900 489.47C802.93 511.01 820.53 584.02 737.31 675C708.03 707.01 710.02 735.45 675 735.45C625.57 735.45 616.64 712.07 568.42 675C504.14 625.59 522.18 588.39 450 562.5C350.47 526.79 324.55 586.19 225 551.79C161.75 529.94 174.71 500.89 124.41 450C62.21 387.05 39.88 396.23 0 324.11C-22.33 283.73 0 274.56 0 225C0 112.5 -56.25 56.25 0 0C56.25 -56.25 112.5 0 225 0C337.5 0 337.5 0 450 0C562.5 0 562.5 0 675 0C787.5 0 787.5 0 900 0C983.57 0 1039.37 -47.61 1067.14 0" stroke="rgba(242, 200, 34, 1)" stroke-width="2"></path><path d="M143.75 900C143.75 876.2 177.07 818.75 225 818.75C306.33 818.75 402.27 878.72 402.27 900C402.27 919.34 313.63 900 225 900C184.38 900 143.75 916.83 143.75 900" stroke="rgba(242, 200, 34, 1)" stroke-width="2"></path><path d="M788.66 900C788.66 866.56 841.6 786.32 900 786.32C964.77 786.32 1035 867.79 1035 900C1035 924.63 967.5 900 900 900C844.33 900 788.66 923.4 788.66 900" stroke="rgba(242, 200, 34, 1)" stroke-width="2"></path><path d="M0 32.14C14.67 32.14 57.45 140.23 57.45 225C57.45 252.73 19.3 257.14 0 257.14C-9.42 257.14 0 241.07 0 225C0 128.57 -14.06 32.14 0 32.14" stroke="rgba(242, 200, 34, 1)" stroke-width="2"></path><path d="M450 196.87C416.4 196.87 381.52 74.09 381.52 0C381.52 -24.34 415.76 0 450 0C482.82 0 515.63 -23.65 515.63 0C515.63 74.78 483.45 196.87 450 196.87" stroke="rgba(242, 200, 34, 1)" stroke-width="2"></path><path d="M900 18.75C894.96 18.75 887.5 6.03 887.5 0C887.5 -3.34 893.75 0 900 0C903.21 0 906.43 -2.3 906.43 0C906.43 7.08 904.43 18.75 900 18.75" stroke="rgba(242, 200, 34, 1)" stroke-width="2"></path><path d="M190.59 450C190.59 421.83 196.71 389.06 225 389.06C295.16 389.06 387.5 425.54 387.5 450C387.5 473.42 301.05 484.82 225 484.82C202.6 484.82 190.59 469.71 190.59 450" stroke="rgba(242, 200, 34, 1)" stroke-width="2"></path><path d="M520.31 450C520.31 411.82 598.98 411.92 675 411.92C723.92 411.92 770.19 416.63 770.19 450C770.19 504.42 730.84 587.5 675 587.5C605.9 587.5 520.31 499.61 520.31 450" stroke="rgba(242, 200, 34, 1)" stroke-width="2"></path><path d="M1005.47 450C1005.47 416.57 1071.77 376.44 1125 376.44C1160.51 376.44 1182.95 415.15 1182.95 450C1182.95 480.06 1158.67 506.25 1125 506.25C1069.93 506.25 1005.47 481.47 1005.47 450" stroke="rgba(242, 200, 34, 1)" stroke-width="2"></path><path d="M221.88 900C221.88 899.09 223.16 896.88 225 896.88C228.13 896.88 231.82 899.18 231.82 900C231.82 900.74 228.41 900 225 900C223.44 900 221.88 900.65 221.88 900" stroke="rgba(242, 200, 34, 1)" stroke-width="2"></path><path d="M846.65 900C846.65 883.98 872.02 845.53 900 845.53C931.04 845.53 964.69 884.57 964.69 900C964.69 911.8 932.35 900 900 900C873.33 900 846.65 911.21 846.65 900" stroke="rgba(242, 200, 34, 1)" stroke-width="2"></path></g><defs><mask id="SvgjsMask1008"><rect width="1440" height="900" fill="#ffffff"></rect></mask></defs></svg>