<svg width="834" height="338" viewBox="0 0 834 338" fill="none" xmlns="http://www.w3.org/2000/svg">
<rect x="14.1465" y="14.1445" width="309" height="309" rx="77.25" fill="black"/>
<path fill-rule="evenodd" clip-rule="evenodd" d="M79.1293 123.951C82.0518 124.665 85.1341 124.346 88.1996 124.346C107.1 124.346 125.611 124.346 144.739 124.346C147.787 124.346 151.72 123.78 153.944 124.478C156.302 125.217 158.081 131.043 159.202 133.275C162.532 139.886 165.288 145.541 168.407 152.185C174.334 164.814 180.723 177.32 186.685 190.135C188.144 193.272 189.431 196.571 191.68 199.196C217.315 199.481 241.665 198.935 267.022 198.932C268.5 198.932 270.264 199.243 271.624 198.409C271.857 196.089 270.188 194.255 269.257 192.367C266.425 186.639 263.999 180.651 261.107 174.903C259.2 171.116 257.427 167.178 255.582 163.349C253.717 159.481 251.793 155.666 250.059 151.795C243.093 136.222 234.85 121.234 228.234 105.311C226.074 100.779 223.171 96.7285 219.688 93.3618C216.241 90.0342 212.511 86.5863 208.113 84.4323C203.485 82.1608 197.859 80.2841 191.941 80.0993C185.482 79.8976 177.94 79.9816 171.035 79.9676C154.92 79.9396 136.535 79.7884 120.807 80.0993C110.037 80.3121 102.01 84.3287 95.8254 89.5525C92.586 92.289 89.5037 94.7118 87.145 98.087C82.4444 104.815 78.6721 113.383 79.1293 123.951ZM162.36 94.9303C171.506 94.9303 181.269 94.751 190.368 94.9303C196.948 95.0592 202.419 97.3363 206.41 100.05C214.701 105.689 218.069 116.615 222.714 126.052C224.944 130.584 227.818 135.267 229.552 140.365C231.229 145.311 234.031 150.031 236.258 154.809C238.482 159.585 241.006 164.276 243.093 169.122C244.666 172.766 246.722 176.208 248.222 179.757C248.727 180.948 249.454 182.379 249.142 183.695C245.392 184.505 241.309 184.219 237.175 184.219C224.927 184.222 211.807 184.653 200.094 184.219C198.737 182.718 197.921 180.81 197.071 178.967C190.996 165.786 184.318 152.832 178.137 139.704C176.384 135.978 174.384 132.379 172.746 128.542C171.142 124.783 169.159 120.954 167.224 117.38C163.768 110.997 161.384 103.678 157.36 98.0758C156.824 97.3279 155.781 96.4372 156.176 95.3196C157.954 94.6306 160.153 94.9303 162.36 94.9303ZM101.219 103.991C103.488 101.633 107.428 98.8096 110.424 97.426C113.585 95.9639 119.18 94.2665 123.965 94.7987C125.6 94.9807 127.56 95.2776 129.226 95.5857C133.256 96.3336 137.113 98.7396 140.007 100.838C141.539 101.949 142.826 103.319 144.082 104.778C145.311 106.201 147.061 107.641 147.109 109.77C133.315 110.249 117.901 110.033 103.847 110.033C101.833 110.033 99.78 110.336 97.9317 109.638C98.2487 107.512 99.7015 105.571 101.219 103.991Z" fill="#FFD600"/>
<path fill-rule="evenodd" clip-rule="evenodd" d="M65.7175 138.134C65.3585 139.671 66.4608 140.982 67.0329 142.206C68.7606 145.901 70.7183 149.777 72.4263 153.631C76.9642 163.891 81.993 173.837 86.8871 183.966C89.3356 189.03 91.383 194.267 93.9885 199.197C96.5744 204.088 98.8378 209.328 101.219 214.429C103.6 219.521 106.194 224.512 108.449 229.531C113.119 239.915 119.752 247.754 129.754 252.905C134.802 255.507 140.689 257.252 147.897 257.238C154.695 257.227 162.282 257.107 169.594 257.107C184.596 257.107 199.85 257.723 213.905 257.107C217.769 256.936 221.118 256.824 224.293 256.188C227.202 255.605 230.121 254.519 232.575 253.3C237.5 250.852 241.822 247.78 245.592 243.976C251.936 237.584 256.833 229.044 258.087 217.319C258.244 215.843 258.782 214.115 258.087 212.591C255.186 211.955 252.135 212.18 249.142 212.196C230.548 212.297 211.742 212.591 192.34 212.591C189.619 212.591 185.23 213.244 183.003 212.46C181.802 212.037 180.855 209.762 180.111 208.258C171.431 190.727 163.485 173.739 154.998 156.127C152.856 151.682 150.704 146.578 148.161 141.814C147.201 140.016 146.422 137.739 144.871 137.481C143.508 137.251 141.668 137.481 140.007 137.481C116.712 137.481 93.4388 137.613 70.1882 137.613C68.7241 137.607 67.0105 137.226 65.7175 138.134ZM93.2004 152.578C103.241 152.34 113.848 152.446 123.704 152.446C127.409 152.446 132.701 151.861 136.196 152.446C137.912 152.735 139.093 155.603 140.007 157.567C142.77 163.502 145.597 169.022 148.161 174.507C151.809 182.313 155.486 189.738 159.074 197.094C162.835 204.799 166.234 212.569 169.989 219.549C172.99 225.126 175.066 231.302 178.14 236.489C179.2 238.273 180.641 239.817 181.295 241.741C180.131 242.623 178.563 242.267 177.22 242.267C172.494 242.267 168.161 242.267 163.676 242.267C157.365 242.267 150.932 242.713 145.137 242.267C133.826 241.396 125.395 234.371 121.732 225.854C112.589 204.595 101.174 183.551 91.885 162.429C90.5472 159.468 88.4493 156.583 88.0735 153.105C89.5319 152.01 91.4503 152.617 93.2004 152.578ZM195.89 227.033C209.799 227.033 225.968 226.644 239.149 227.033C239.626 228.327 238.49 229.543 237.702 230.579C233.602 235.996 227.962 239.915 220.479 241.741C213.582 243.427 206.756 241.424 201.674 239.245C197.943 237.147 194.693 234.394 192.076 231.234C191.232 230.215 189.872 229.047 190.236 227.428C191.975 226.719 194 227.033 195.89 227.033Z" fill="#FFD600"/>
<path d="M373.146 88.2143H390.143V210.965H373.146V88.2143Z" fill="black"/>
<path d="M447.188 213.026C421.779 213.026 402.207 193.111 402.207 168.732C402.207 144.525 421.951 124.782 447.188 124.782C472.596 124.782 491.824 144.697 491.824 168.732C491.824 193.111 472.424 213.026 447.188 213.026ZM447.188 196.888C462.81 196.888 474.828 184.183 474.828 168.904C474.828 153.453 462.81 140.748 447.188 140.748C431.393 140.748 419.204 153.453 419.204 168.904C419.204 184.183 431.393 196.888 447.188 196.888Z" fill="black"/>
<path d="M545.313 213.026C519.905 213.026 500.333 193.111 500.333 168.732C500.333 144.525 520.076 124.782 545.313 124.782C570.722 124.782 589.95 144.697 589.95 168.732C589.95 193.111 570.55 213.026 545.313 213.026ZM545.313 196.888C560.936 196.888 572.954 184.183 572.954 168.904C572.954 153.453 560.936 140.748 545.313 140.748C529.519 140.748 517.33 153.453 517.33 168.904C517.33 184.183 529.519 196.888 545.313 196.888Z" fill="black"/>
<path d="M615.627 249.593H598.631V168.732C598.631 143.667 618.031 124.782 643.439 124.782C668.848 124.782 688.076 144.697 688.076 168.732C688.076 194.141 669.706 213.026 644.126 213.026C632.795 213.026 622.494 208.047 615.627 200.493V249.593ZM643.439 197.059C659.062 197.059 671.08 184.183 671.08 168.904C671.08 153.453 659.062 140.92 643.439 140.92C627.645 140.92 615.627 153.453 615.627 168.904C615.627 184.183 627.645 197.059 643.439 197.059Z" fill="black"/>
<path d="M708.817 110.189C702.637 110.189 697.658 105.211 697.658 99.0301C697.658 92.8496 702.637 87.6992 708.817 87.6992C714.998 87.6992 719.805 92.8496 719.805 99.0301C719.805 105.211 714.998 110.189 708.817 110.189ZM700.405 126.842H717.401V210.965H700.405V126.842Z" fill="black"/>
<path d="M776.506 141.092C760.025 141.092 751.784 154.654 751.784 170.277V210.965H734.788V168.561C734.788 144.01 749.381 124.782 776.506 124.782C803.975 124.782 818.911 144.01 818.911 168.389V210.965H801.915V170.449C801.915 154.654 793.331 141.092 776.506 141.092Z" fill="black"/>
</svg>
